<svg width="40" height="39" viewBox="0 0 40 39" fill="none" xmlns="http://www.w3.org/2000/svg">
<path d="M29.2568 19.2384C31.2278 19.238 33.1449 18.6097 34.7177 17.4485C36.2905 16.2874 37.4332 14.6567 37.9726 12.8036C38.512 10.9506 38.4188 8.97615 37.707 7.17955C36.9953 5.38295 35.7037 3.86212 34.0282 2.84754C32.3527 1.83295 30.3845 1.37991 28.4218 1.55708C26.4592 1.73424 24.6092 2.53196 23.1521 3.82933C21.695 5.1267 20.7102 6.853 20.3471 8.74664C19.9839 10.6403 20.2622 12.598 21.1397 14.3232C21.3051 14.6365 21.3482 14.998 21.2611 15.3402L20.7209 17.3123C20.6674 17.5076 20.6675 17.7131 20.721 17.9084C20.7745 18.1036 20.8797 18.2817 21.0259 18.4246C21.1722 18.5675 21.3543 18.6703 21.554 18.7227C21.7538 18.775 21.9641 18.775 22.1638 18.7227L24.1813 18.1947C24.5314 18.1096 24.9012 18.1517 25.2218 18.3134C26.4757 18.9222 27.8568 19.2388 29.2568 19.2384Z" stroke="black" stroke-width="1.5"/>
<path d="M24.9878 27.2881L25.8126 26.4394L23.8404 24.6073L23.0156 25.4595L24.9878 27.2881ZM28.5298 26.0797L31.992 28.0305L33.3497 25.7253L29.8857 23.7763L28.5298 26.0797ZM32.6609 32.0687L30.0869 34.7176L32.0573 36.5497L34.6313 33.9008L32.6609 32.0687ZM28.5371 35.5681C25.9359 35.818 19.1474 35.6053 11.7807 28.0252L9.81029 29.8538C17.8386 38.1161 25.4972 38.5342 28.8035 38.2135L28.5371 35.5681ZM11.7807 28.0252C4.75474 20.7942 3.5765 14.6936 3.42967 12.0181L0.714284 12.1616C0.895552 15.4396 2.31669 22.1426 9.81029 29.8538L11.7807 28.0252ZM14.2749 16.2635L14.7933 15.7284L12.823 13.898L12.3027 14.4331L14.2749 16.2635ZM15.203 9.0661L12.9172 5.90861L10.6967 7.44306L12.9807 10.6023L15.203 9.0661ZM5.17891 5.22466L2.33663 8.15535L4.30882 9.98571L7.15472 7.05679L5.17891 5.22466ZM13.2888 15.3474C12.9626 15.0401 12.6333 14.7359 12.3009 14.4349L12.2973 14.4384L12.2918 14.4438L12.2012 14.5465C12.0237 14.7766 11.8831 15.0317 11.7843 15.3031C11.6067 15.7904 11.5124 16.4354 11.632 17.2398C11.8677 18.8203 12.9281 20.9448 15.6961 23.7957L17.6682 21.9636C15.0797 19.3005 14.4417 17.6615 14.322 16.8535C14.264 16.4637 14.322 16.2599 14.3456 16.1944L14.3601 16.1607C14.3406 16.1906 14.3182 16.2185 14.293 16.244L14.284 16.2528L14.2785 16.2582L14.2767 16.2599C14.2767 16.2599 14.2731 16.2635 13.2888 15.3474ZM15.6961 23.7957C18.4568 26.6378 20.5413 27.7524 22.1311 28.0057C22.9486 28.1351 23.6102 28.0305 24.1105 27.8374C24.388 27.7316 24.6458 27.582 24.8736 27.3944L24.9389 27.3342L24.9643 27.3094L24.9824 27.2917C24.9824 27.2881 24.9878 27.2881 24.0017 26.3721C23.0156 25.4578 23.0175 25.456 23.0175 25.4542L23.0211 25.4525L23.0247 25.4471L23.0338 25.4383L23.0519 25.4206L23.119 25.3639C23.1371 25.3544 23.1347 25.355 23.1117 25.3656C23.0755 25.3798 22.9123 25.4365 22.5679 25.3816C21.8392 25.2646 20.2658 24.6374 17.6682 21.9636L15.6961 23.7957ZM12.9172 5.90861C11.0792 3.36773 7.40306 2.93717 5.18072 5.22644L7.14928 7.05679C8.09731 6.08225 9.7686 6.15844 10.6967 7.44306L12.9172 5.90861ZM3.42967 12.0181C3.38979 11.3093 3.70701 10.6023 4.30882 9.98571L2.33663 8.15535C1.36503 9.15469 0.625463 10.5421 0.714284 12.1616L3.42967 12.0181ZM30.0851 34.7194C29.5793 35.2403 29.0519 35.5185 28.5371 35.5681L28.8035 38.2135C30.1576 38.0842 31.2543 37.3772 32.0573 36.5497L30.0851 34.7194ZM14.7933 15.7301C16.5498 13.9228 16.6713 11.1002 15.203 9.06787L12.9825 10.6023C13.7474 11.6601 13.6296 13.0688 12.823 13.898L14.7933 15.7301ZM31.992 28.0305C33.4802 28.8686 33.7721 30.9276 32.6609 32.0704L34.6313 33.9008C36.9968 31.4662 36.308 27.3909 33.3497 25.7253L31.992 28.0305ZM25.8126 26.4394C26.5105 25.72 27.5999 25.5588 28.5298 26.0815L29.8857 23.778C27.8936 22.6582 25.4265 22.9807 23.8404 24.6108L25.8126 26.4394Z" fill="black"/>
</svg>
