<svg width="44" height="44" viewBox="0 0 44 44" fill="none" xmlns="http://www.w3.org/2000/svg">
<path d="M34.1389 9.29915C32.4956 7.6398 30.5385 6.3241 28.3816 5.42873C26.2247 4.53336 23.9112 4.07622 21.5758 4.08396C11.7906 4.08396 3.81549 12.0591 3.81549 21.8443C3.81549 24.9806 4.63989 28.0272 6.18115 30.7155L3.67212 39.9272L13.081 37.454C15.6796 38.8698 18.6008 39.6225 21.5758 39.6225C31.361 39.6225 39.3361 31.6474 39.3361 21.8622C39.3361 17.113 37.4902 12.6505 34.1389 9.29915ZM21.5758 36.6117C18.9234 36.6117 16.3248 35.8948 14.0487 34.5507L13.5111 34.2281L7.91954 35.6977L9.40704 30.2495L9.04861 29.694C7.57464 27.341 6.79214 24.6208 6.79048 21.8443C6.79048 13.7079 13.4215 7.07687 21.5579 7.07687C25.5007 7.07687 29.2104 8.61813 31.9883 11.4139C33.364 12.7829 34.4542 14.4114 35.1956 16.2049C35.937 17.9985 36.3149 19.9215 36.3074 21.8622C36.3432 29.9986 29.7122 36.6117 21.5758 36.6117ZM29.6764 25.572C29.2283 25.3569 27.0419 24.2816 26.6476 24.1203C26.2354 23.977 25.9487 23.9053 25.644 24.3354C25.3394 24.7834 24.497 25.787 24.2461 26.0738C23.9952 26.3785 23.7264 26.4143 23.2784 26.1813C22.8303 25.9663 21.3966 25.4824 19.712 23.977C18.3858 22.7941 17.5076 21.3425 17.2388 20.8944C16.9879 20.4464 17.2029 20.2134 17.4359 19.9804C17.6331 19.7833 17.884 19.4607 18.099 19.2098C18.3141 18.9589 18.4037 18.7618 18.5471 18.475C18.6904 18.1704 18.6188 17.9195 18.5112 17.7044C18.4037 17.4893 17.5076 15.3029 17.1492 14.4068C16.7907 13.5466 16.4144 13.6541 16.1456 13.6362H15.2853C14.9807 13.6362 14.5147 13.7437 14.1025 14.1918C13.7082 14.6398 12.5612 15.7151 12.5612 17.9015C12.5612 20.088 14.1563 22.2027 14.3713 22.4895C14.5864 22.7941 17.5076 27.2745 21.9522 29.1922C23.0095 29.6581 23.8339 29.9269 24.4791 30.1241C25.5365 30.4646 26.5043 30.4108 27.2749 30.3033C28.1351 30.1778 29.9094 29.228 30.2678 28.1885C30.6442 27.1491 30.6442 26.2709 30.5187 26.0738C30.3933 25.8767 30.1244 25.787 29.6764 25.572Z" fill="black"/>
</svg>
