<svg width="45" height="45" viewBox="0 0 45 45" fill="none" xmlns="http://www.w3.org/2000/svg">
<path d="M42.6527 10.3043C41.1057 10.9764 39.469 11.4193 37.7941 11.6188C39.5543 10.5882 40.878 8.95073 41.5169 7.01364C39.8528 7.98678 38.0352 8.66955 36.1419 9.03268C35.3447 8.19717 34.3859 7.53249 33.3238 7.07906C32.2617 6.62562 31.1185 6.3929 29.9636 6.39503C25.288 6.39503 21.5043 10.1238 21.5043 14.7204C21.5009 15.3597 21.5742 15.9972 21.7225 16.6191C18.3697 16.462 15.0867 15.6067 12.0835 14.108C9.0802 12.6093 6.42283 10.5003 4.28136 7.91576C3.53012 9.1823 3.13281 10.6273 3.13094 12.0999C3.13094 14.9867 4.63706 17.5385 6.91128 19.0334C5.56387 19.0014 4.24407 18.6448 3.06392 17.9938V18.0969C3.06392 22.135 5.98509 25.4944 9.85135 26.259C9.1243 26.4528 8.3751 26.551 7.62267 26.5511C7.08876 26.5521 6.55607 26.5003 6.03235 26.3965C7.10717 29.7043 10.2354 32.11 13.941 32.1787C10.9299 34.4992 7.23313 35.7534 3.43164 35.7442C2.75687 35.7432 2.08272 35.7031 1.4126 35.624C5.27991 38.0933 9.77528 39.3995 14.3637 39.3871C29.9456 39.3871 38.4582 26.6972 38.4582 15.6912C38.4582 15.3304 38.4488 14.9695 38.4316 14.6173C40.0838 13.442 41.5132 11.9814 42.6527 10.3043Z" fill="black"/>
</svg>
