<svg width="49" height="50" viewBox="0 0 49 50" fill="none" xmlns="http://www.w3.org/2000/svg">
<path d="M36.7687 6.8667H12.3301C8.86797 6.8667 6.22046 9.51421 6.22046 12.9763V37.4149C6.22046 40.877 8.86797 43.5246 12.3301 43.5246H36.7687C40.2308 43.5246 42.8783 40.877 42.8783 37.4149V12.9763C42.8783 9.51421 40.2308 6.8667 36.7687 6.8667ZM24.5494 19.086C28.0115 19.086 30.659 21.7335 30.659 25.1956C30.659 28.6578 28.0115 31.3053 24.5494 31.3053C21.0873 31.3053 18.4397 28.6578 18.4397 25.1956C18.4397 21.7335 21.0873 19.086 24.5494 19.086ZM32.2883 15.0129C32.2883 13.5873 33.5102 12.569 34.7321 12.569C35.9541 12.569 37.176 13.791 37.176 15.0129C37.176 16.2348 36.1577 17.4567 34.7321 17.4567C33.3065 17.4567 32.2883 16.4385 32.2883 15.0129ZM36.7687 39.4515H12.3301C11.1082 39.4515 10.2936 38.6368 10.2936 37.4149V25.1956H14.3667C14.3667 30.898 18.8471 35.3784 24.5494 35.3784C30.2517 35.3784 34.7321 30.898 34.7321 25.1956H38.8052V37.4149C38.8052 38.6368 37.9906 39.4515 36.7687 39.4515Z" fill="black"/>
</svg>
