<svg width="46" height="38" viewBox="0 0 46 38" fill="none" xmlns="http://www.w3.org/2000/svg">
<path d="M26.3591 37.8157C37.067 36.4473 45.2788 28.5771 45.2788 19.0743C45.2788 8.60729 35.3193 0.122925 23.0324 0.122925C10.7455 0.122925 0.785889 8.60729 0.785889 19.0743C0.785889 28.5791 8.99769 36.4473 19.7057 37.8157V24.6022H15.0282C14.7341 24.6022 14.452 24.5027 14.2441 24.3255C14.0361 24.1484 13.9193 23.9081 13.9193 23.6576V20.0753C13.9193 19.5524 14.4167 19.1306 15.0282 19.1306H19.7057L19.5414 15.354C19.5414 13.523 19.9407 10.551 22.6034 8.92606C24.4653 7.79287 25.8503 7.57906 28.0726 7.57906C30.0006 7.57906 31.3263 7.74233 32.2025 7.85118L32.6314 7.89977C32.7377 7.9116 32.8352 7.95602 32.9058 8.02472C32.9764 8.09342 33.0151 8.18168 33.0148 8.27297V12.2382C33.0148 12.4578 32.798 12.6269 32.547 12.6153H32.4603C32.2002 12.623 30.8403 12.6716 29.6858 12.6716C27.6551 12.6716 26.3591 13.4608 26.3591 16.0829V19.1306H31.3605C32.045 19.1306 32.5675 19.6554 32.4557 20.2308L31.8169 23.8131C31.7737 24.0335 31.6402 24.2337 31.4401 24.3782C31.24 24.5227 30.9863 24.602 30.7239 24.6022H26.3591V37.8157Z" fill="black"/>
</svg>
