<svg width="12" height="12" viewBox="0 0 12 12" fill="none" xmlns="http://www.w3.org/2000/svg">
<path d="M11.7306 10.1525L8.86038 7.28207C9.30782 6.54761 9.54384 5.70387 9.54242 4.84383C9.54242 2.24835 7.29352 6.14204e-08 4.6983 6.14204e-08C4.08128 -9.97165e-05 3.47029 0.121369 2.90022 0.357468C2.33015 0.593566 1.81217 0.93967 1.37588 1.37601C0.93958 1.81235 0.59351 2.33037 0.357433 2.9005C0.121357 3.47062 -9.97069e-05 4.08167 6.14145e-08 4.69875C6.14145e-08 7.29346 2.24889 9.54257 4.84336 9.54257C5.67498 9.54332 6.49173 9.322 7.20922 8.90149L10.0946 11.7886C10.2303 11.924 10.4141 12 10.6057 12C10.7974 12 10.9812 11.924 11.1169 11.7886L11.8331 11.0724C12.1149 10.7906 12.0123 10.4343 11.7306 10.1525ZM1.4461 4.69875C1.4458 4.2715 1.52971 3.84839 1.69303 3.45359C1.85635 3.0588 2.09589 2.70008 2.39793 2.39794C2.69997 2.09579 3.05861 1.85616 3.45332 1.69272C3.84804 1.52929 4.27109 1.44528 4.6983 1.44548C6.49529 1.44548 8.09632 3.04591 8.09632 4.84383C8.09612 5.70658 7.75333 6.53395 7.14333 7.14401C6.53333 7.75408 5.70604 8.0969 4.84336 8.0971C3.04637 8.09634 1.4461 6.49515 1.4461 4.69875Z" fill="black"/>
</svg>
