<svg width="32" height="31" viewBox="0 0 32 31" fill="none" xmlns="http://www.w3.org/2000/svg">
<path d="M31 14.6524C31.0057 16.7467 30.4917 18.8126 29.5 20.6819C28.324 22.922 26.5162 24.8061 24.279 26.1232C22.0419 27.4404 19.4637 28.1385 16.8333 28.1395C14.6335 28.145 12.4635 27.6557 10.5 26.7115L1 29.7262L4.16666 20.6819C3.17488 18.8126 2.66093 16.7467 2.66666 14.6524C2.66768 12.1482 3.40102 9.69369 4.78453 7.56384C6.16804 5.43399 8.14708 3.71291 10.5 2.59337C12.4635 1.64917 14.6335 1.15987 16.8333 1.16533H17.6666C21.1405 1.34779 24.4217 2.74373 26.8819 5.08588C29.342 7.42803 30.8083 10.5518 31 13.8591V14.6524Z" stroke="white" stroke-width="2" stroke-linecap="round" stroke-linejoin="round"/>
</svg>
